<svg width="33" height="36" viewBox="0 0 33 36" fill="none" xmlns="http://www.w3.org/2000/svg">
<path d="M16.024 36V33.8824H29.6154C29.9327 33.8824 30.2239 33.7496 30.489 33.4842C30.7528 33.2202 30.8846 32.9118 30.8846 32.5588V3.44118C30.8846 3.08824 30.7528 2.77977 30.489 2.51577C30.2239 2.25035 29.9327 2.11765 29.6154 2.11765H16.024V0H29.6154C30.5673 0 31.369 0.326823 32.0206 0.98047C32.6735 1.63271 33 2.45294 33 3.44118V32.5588C33 33.5471 32.6735 34.368 32.0206 35.0216C31.369 35.6739 30.5673 36 29.6154 36H16.024ZM14.8606 25.5176L13.3798 23.9824L18.2981 19.0588H0V16.9412H18.2981L13.3798 12.0176L14.8606 10.4824L22.3702 18L14.8606 25.5176Z" fill="black"/>
</svg>
